# xmcd
#
# Track frame offsets: 
#        150
#        14047
#        26152
#        44130
#        61130
#        79752
#        90577
#        107182
#        118822
#        132240
#        146547
#
# Disc length: 2149 seconds
#
# Revision: 7
# Processed by: cddbd v1.5.2PL0 Copyright (c) Steve Scherf et al.
# Submitted via: ExactAudioCopyFreeDBPlugin 1.0
#
DISCID=9d08630b
DTITLE=Booker T. and the M.G.'s - Soul Limbo
DYEAR=1968
DGENRE=Soul
TTITLE0=Be Young, Be Foolish, Be Happy
TTITLE1=La La Means I Love You
TTITLE2=Hang 'Em High
TTITLE3=Willow Weep for Me
TTITLE4=Over Easy
TTITLE5=Soul Limbo
TTITLE6=Eleanor Rigby
TTITLE7=Heads or Tails
TTITLE8=(Sweet Sweet Baby) Since You've Been Gone
TTITLE9=Born Under a Bad Sign
TTITLE10=Foxy Lady
EXTD=© 1991\nLabel: Stax Records - Fantasy Inc.\n0025218411325\nDigita
EXTD=l remastering: Joe Tarantino (Fantasy Studios, Berkeley 1991)
EXTT0=
EXTT1=
EXTT2=
EXTT3=
EXTT4=
EXTT5=
EXTT6=
EXTT7=
EXTT8=
EXTT9=
EXTT10=
PLAYORDER=
